<?xml version="1.0" encoding="utf-8"?>
<!-- Generator: Adobe Illustrator 22.0.1, SVG Export Plug-In . SVG Version: 6.00 Build 0)  -->
<!DOCTYPE svg PUBLIC "-//W3C//DTD SVG 1.1//EN" "http://www.w3.org/Graphics/SVG/1.1/DTD/svg11.dtd">
<svg version="1.1" id="Layer_1" xmlns="http://www.w3.org/2000/svg" xmlns:xlink="http://www.w3.org/1999/xlink" x="0px" y="0px"
	 width="778.9px" height="680px" viewBox="0 0 778.9 680" enable-background="new 0 0 778.9 680" xml:space="preserve">
<path fill="#FFFFFF" d="M699.4,312C677,164.1,549.4,50.8,395.3,50.8C241.6,50.8,114.2,163.6,91.4,311c-42.7,1.1-77,36.1-77,79
	c0,43.7,35.4,79.1,79.1,79.1c4.9,0,9.7-0.5,14.3-1.3C152,583.6,264,665.8,395.3,665.8c130.8,0,242.6-81.7,287-196.9
	c1.3,0.1,2.6,0.1,4,0.1c43.7,0,79.1-35.4,79.1-79.1C765.4,350.8,736.8,318.2,699.4,312z"/>
<path fill="#B7B7B8" stroke="#010101" stroke-width="12" stroke-miterlimit="10" d="M-541.1,509c0-38.2-29.3-69.5-66.6-72.8V136
	c0-44.9-36.7-81.6-81.6-81.6h-502c-44.9,0-81.6,36.7-81.6,81.6v300.1c-37.7,2.9-67.4,34.4-67.4,72.9s29.7,69.9,67.4,72.9V638
	c0,44.9,36.7,81.6,81.6,81.6h502c44.9,0,81.6-36.8,81.6-81.6v-56.2C-570.4,578.5-541.1,547.2-541.1,509z"/>
<path fill="#FFFFFF" d="M-1186.1,424.1c0,0,0,0.7,0,1.3c0.2,40.4,33.1,72.8,73.5,72.7c40.4-0.2,73-32.7,72.9-73.2c0-0.6,0-1.4,0-1.4
	L-1186.1,424.1z"/>
<path fill="#333333" d="M-1149.3,423c0,0,0,1.2,0,1.5c0,20.2,16.4,36.9,36.6,36.9c20.2,0,36.6-16.9,36.6-37.1c0-0.3,0-1.4,0-1.4
	L-1149.3,423L-1149.3,423z"/>
<path fill="#FFFFFF" d="M-856.2,422.6c0,0,0,0.7,0,1.3c0.2,40.4,33.1,72.8,73.5,72.7c40.4-0.2,73-32.7,72.9-73.2c0-0.6,0-1.4,0-1.4
	L-856.2,422.6z"/>
<path fill="#333333" d="M-824,603.2h-241.6c-5.7,0-10.4-4.7-10.4-10.4l0,0c0-5.7,4.7-10.4,10.4-10.4H-824c5.7,0,10.4,4.7,10.4,10.4
	l0,0C-813.5,598.5-818.2,603.2-824,603.2z"/>
<path fill="#333333" d="M-1048.2,403.8h-137.2c-12.3,0-22.4-10.1-22.4-22.4l0,0c0-12.3,10.1-22.4,22.4-22.4h137.2
	c12.3,0,22.4,10.1,22.4,22.4l0,0C-1025.8,393.7-1035.9,403.8-1048.2,403.8z"/>
<path fill="#333333" d="M-716.5,403.8h-137.2c-12.3,0-22.4-10.1-22.4-22.4l0,0c0-12.3,10.1-22.4,22.4-22.4h137.2
	c12.3,0,22.4,10.1,22.4,22.4l0,0C-694.1,393.7-704.2,403.8-716.5,403.8z"/>
<path fill="#333333" d="M-946.3,155.3L-946.3,155.3c-35.3,0-64.1-28.9-64.1-64.1V16.6c0-35.3,28.9-64.1,64.1-64.1l0,0
	c35.3,0,64.1,28.9,64.1,64.1v74.6C-882.2,126.4-911,155.3-946.3,155.3z"/>
<path fill="#333333" d="M-970.1,138.8c0,0-229-112.6-237.9,0.8c0,0,4,203.6-47,206.6V525h-20.1V148.2c0,0,1.2-96.2,96.7-96.2h182.2
	h61.1v99.6L-970.1,138.8z"/>
<path fill="#333333" d="M-910.6,138.8c0,0,228.8-112.6,237.7,0.8c0,0-4.2,203.6,46.8,206.6V525h20V148.2c0,0-0.3-96.2-95.8-96.2
	H-884h-62.1v99.6L-910.6,138.8z"/>
<path fill="#333333" d="M-816,423c0,0,0,1.2,0,1.5c0,20.2,16.4,36.9,36.6,36.9s36.6-16.9,36.6-37.1c0-0.3,0-1.4,0-1.4L-816,423
	L-816,423z"/>
<polygon fill="#333333" points="-956.3,305.8 -1016.3,563.8 -884.3,563.8 "/>
<polygon fill="#A09E9F" points="1367.8,245.8 1307.8,503.8 1439.8,503.8 "/>
<g>
	<path d="M754.8,331.5c-12-14-28-24-45.7-28.7c-12.6-71.7-49.7-137.2-105.1-185.2c-19.5-16.9-40.7-31.2-63.4-42.8
		C412.9-61.7,299.2,29.2,259.5,70.2c-26,12.2-50.4,28-72.4,47.1C132.1,164.8,95,229.7,82,300.7c-20.1,2.6-38.6,11.8-52.9,26.4
		C12.5,344,3.5,366.3,3.5,390c0,49.7,40.4,90.1,90.1,90.1c2.4,0,4.8-0.1,7.2-0.3C124,536,162.5,584.1,212.6,619.2
		c53.7,37.7,116.9,57.6,182.7,57.6c65.6,0,128.6-19.8,182.2-57.2c50.3-35.1,89-83.3,112.2-139.6c48.1-1.8,86.6-41.5,86.6-90
		C776.4,368.5,768.7,347.8,754.8,331.5z M686.3,458.1c-1.1,0-2.3,0-3.4-0.1l-7.9-0.4L672,465c-21.3,55.3-58.4,102.5-107.1,136.6
		c-49.9,34.8-108.5,53.3-169.6,53.3c-61.3,0-120.1-18.5-170.1-53.6c-48.9-34.3-85.9-81.8-107.1-137.4l-3.3-8.6l-9,1.6
		c-4.1,0.8-8.3,1.1-12.3,1.1c-37.5,0-68.1-30.5-68.1-68.1c0-17.9,6.9-34.7,19.3-47.5c12.5-12.8,29.1-20,46.9-20.5l3.9-0.1l5.3,98
		c12.7,23.6,27.3,0,27.3,0l0-110.9c5.5-63.6,49.1-98.2,49.1-98.2c30.9-32.7,18.2-41.8,18.2-41.8c0-41.4,34.5-44,51.2-42.9l-2.2,1.1
		c0,0,21.1,17.9,54.4,34.2c33.6,20.1,67.4,26.8,98.9,25.9c31,0.7,64.2-5.9,97.2-25.5c33.7-16.4,55-34.5,55-34.5l-2.3-1.2
		c16.6-1.1,51.3,1.5,51.3,42.9c0,0-12.7,9.1,18.2,41.8c0,0,43.6,34.5,49.1,98.2V420c0,0,14.5,23.6,27.3,0l5.2-96.9
		c32.3,6,55.6,33.9,55.6,66.9C754.4,427.5,723.8,458.1,686.3,458.1z"/>
	<path d="M297.9,336.8c12.3,0,22.4-7,22.4-15.6c0-8.6-10.1-15.6-22.4-15.6H160.7c-12.3,0-22.4,7-22.4,15.6
		c0,8.6,10.1,15.6,22.4,15.6H297.9z"/>
	<path d="M624.9,305.6H487.7c-12.3,0-22.4,7-22.4,15.6c0,8.6,10.1,15.6,22.4,15.6h137.2c12.3,0,22.4-7,22.4-15.6
		C647.3,312.6,637.2,305.6,624.9,305.6z"/>
	<path d="M289.9,379.5c6.7,0,13.3,0,20,0c9.7,0,9.7-15,0-15c-46.7,0-93.4,0-140,0c-6.7,0-13.3,0-20,0c-9.7,0-9.7,15,0,15
		c15.6,0,31.3,0,46.9,0c0,20.2,16.4,36.9,36.6,36.9c20.1,0,36.5-16.8,36.6-36.9C276.6,379.5,283.3,379.5,289.9,379.5z"/>
	<path d="M638.4,364.5c-46.7,0-93.4,0-140,0c-6.7,0-13.3,0-20,0c-9.7,0-9.7,15,0,15c15.6,0,31.3,0,46.9,0
		c0,20.2,16.4,36.9,36.6,36.9c20.1,0,36.5-16.8,36.6-36.9c6.7,0,13.3,0,20,0c6.7,0,13.3,0,20,0C648,379.5,648.1,364.5,638.4,364.5z"
		/>
	<path d="M515.2,527.3c-71.8,25.8-152.3,25.9-225.4,5.1c-5.4-1.5-10.8-3.1-16-5.1c-9-3.4-12.9,11.1-4,14.5
		c15.6,5.9,32.3,9.7,48.7,12.8c38.9,7.4,79,9.8,118.4,5.7c28.1-2.9,55.8-8.9,82.4-18.5C528.2,538.5,524.3,524,515.2,527.3z"/>
	<path d="M324.8,504.3c38.5,0,77,0,115.5,0c5.5,0,11,0,16.5,0c9.7,0,9.7-15,0-15c-19.9,0-39.9,0-59.8,0c0-25.3,0-50.6,0-75.9
		c0-40.4,0-80.8,0-121.2c0-9.2,0-18.4,0-27.6c0-9.3-14.4-9.3-14.4,0c0,25.4,0,50.8,0,76.1c0,40.4,0,80.8,0,121.2
		c0,9.1,0,18.3,0,27.4c-13.8,0-27.5,0-41.3,0c-5.5,0-11,0-16.5,0C315.2,489.3,315.1,504.3,324.8,504.3z"/>
</g>
</svg>
