<?xml version="1.0" encoding="utf-8"?>
<!-- Generator: Adobe Illustrator 18.0.0, SVG Export Plug-In . SVG Version: 6.00 Build 0)  -->
<!DOCTYPE svg PUBLIC "-//W3C//DTD SVG 1.1//EN" "http://www.w3.org/Graphics/SVG/1.1/DTD/svg11.dtd">
<svg version="1.1" id="Layer_1" xmlns="http://www.w3.org/2000/svg" xmlns:xlink="http://www.w3.org/1999/xlink" x="0px" y="0px"
	 viewBox="0 0 800 800" enable-background="new 0 0 800 800" xml:space="preserve">
<g>
	<g>
		<circle fill="#CEB197" cx="73.9" cy="573" r="73.1"/>
		<path fill="#AA8D75" d="M71.1,533.5c0,0-47.6-1.7-47.6,57.8c0,0,42.5-32.3,45.9,0L71.1,533.5z"/>
	</g>
	<g>
		<circle fill="#CEB197" cx="726.9" cy="573" r="73.1"/>
		<path fill="#AA8D75" d="M729.7,530.1c0,0,47.6-1.7,47.6,57.8c0,0-42.5-32.3-45.9,0L729.7,530.1z"/>
	</g>
	<path fill="#CEB197" d="M651.8,783.6h-502c-44.9,0-81.6-36.7-81.6-81.6v-502c0-44.9,36.7-81.6,81.6-81.6h502
		c44.9,0,81.6,36.7,81.6,81.6v502C733.4,746.8,696.7,783.6,651.8,783.6z"/>
	<path fill="#EAEAEA" d="M155.2,487c0,0,0,0.7,0,1.3c0,40.4,32.8,73,73.2,73c40.4,0,73.2-32.4,73.2-72.9c0-0.6,0-1.4,0-1.4H155.2z"
		/>
	<path opacity="0.3" fill="#333333" d="M191.8,487c0,0,0,1.2,0,1.5c0,20.2,16.4,36.9,36.6,36.9c20.2,0,36.6-16.9,36.6-37.1
		c0-0.3,0-1.4,0-1.4H191.8z"/>
	<path fill="#EAEAEA" d="M485.1,487c0,0,0,0.7,0,1.3c0,40.4,32.8,73,73.2,73c40.4,0,73.2-32.4,73.2-72.9c0-0.6,0-1.4,0-1.4H485.1z"
		/>
	<path fill="#333333" d="M517.1,667.2H275.5c-5.7,0-10.4-4.7-10.4-10.4l0,0c0-5.7,4.7-10.4,10.4-10.4h241.6
		c5.7,0,10.4,4.7,10.4,10.4l0,0C527.6,662.5,522.9,667.2,517.1,667.2z"/>
	<path fill="#333333" d="M292.9,467.8H155.7c-12.3,0-22.4-10.1-22.4-22.4v0c0-12.3,10.1-22.4,22.4-22.4h137.2
		c12.3,0,22.4,10.1,22.4,22.4v0C315.3,457.7,305.2,467.8,292.9,467.8z"/>
	<path fill="#333333" d="M624.6,467.8H487.4c-12.3,0-22.4-10.1-22.4-22.4v0c0-12.3,10.1-22.4,22.4-22.4h137.2
		c12.3,0,22.4,10.1,22.4,22.4v0C647,457.7,636.9,467.8,624.6,467.8z"/>
	<path fill="#333333" d="M394.8,219.3L394.8,219.3c-35.3,0-64.1-28.9-64.1-64.1V80.6c0-35.3,28.9-64.1,64.1-64.1h0
		c35.3,0,64.1,28.9,64.1,64.1v74.6C458.9,190.4,430.1,219.3,394.8,219.3z"/>
	<path opacity="0.69" fill="#333333" d="M371,202.8c0,0-229-112.6-237.9,0.8c0,0,4,203.6-47,206.6V589H66V212.2
		c0,0,1.2-96.2,96.7-96.2h182.2H406v99.6L371,202.8z"/>
	<path opacity="0.69" fill="#333333" d="M430.5,202.8c0,0,228.8-112.6,237.7,0.8c0,0-4.2,203.6,46.8,206.6V589h20V212.2
		c0,0-0.3-96.2-95.8-96.2H457.1H395v99.6L430.5,202.8z"/>
	<path fill="#AA8D75" d="M348.3,572c0,0,0,0.6,0,0.9c0,25.6,20.8,46.3,46.4,46.3c25.6,0,46.4-20.6,46.4-46.2c0-0.4,0-1,0-1H348.3z"
		/>
	<path opacity="0.3" fill="#333333" d="M525.1,487c0,0,0,1.2,0,1.5c0,20.2,16.4,36.9,36.6,36.9s36.6-16.9,36.6-37.1
		c0-0.3,0-1.4,0-1.4H525.1z"/>
</g>
</svg>
