<?xml version="1.0" encoding="UTF-8"?>
<svg width="1920px" height="1080px" viewBox="0 0 1920 1080" version="1.1" xmlns="http://www.w3.org/2000/svg" xmlns:xlink="http://www.w3.org/1999/xlink">
    <!-- Generator: Sketch 54.1 (76490) - https://sketchapp.com -->
    <title>Apple TV Copy 2</title>
    <desc>Created with Sketch.</desc>
    <g id="Apple-TV-Copy-2" stroke="none" stroke-width="1" fill="none" fill-rule="evenodd">
        <rect id="Rectangle" fill="#323A44" x="0" y="0" width="1920" height="1080"></rect>
        <path d="M1102.34458,457.881013 L959.285,377 L817,459.118987 L817.476667,545.895118 L884.507917,583.329114 L884.507917,659.965642 L960.774583,703 L1103,620.881013 L1102.34458,457.881013 Z M961.037799,662 L920.58338,639.119932 L920.58338,603.055743 L960.858533,625.817568 L1036.26987,582.363176 L1035.85158,495.986486 L960.081712,453.182432 L884.730128,496.695946 L884.730128,542.278716 L853,524.54223 L853,478.959459 L959.962201,417 L1067.52196,477.777027 L1068,600.277027 L961.037799,662 Z M921,517.809399 L960.969992,495 L1001,517.571802 L1001,563.190601 L960.969992,586 L921,563.428198 L921,517.809399 Z" id="Shape" fill="#FF6D22" fill-rule="nonzero"></path>
    </g>
</svg>