<?xml version="1.0" encoding="UTF-8"?>
<svg width="1440px" height="450px" viewBox="0 0 1440 450" version="1.1" xmlns="http://www.w3.org/2000/svg" xmlns:xlink="http://www.w3.org/1999/xlink">
    <!-- Generator: Sketch 54.1 (76490) - https://sketchapp.com -->
    <title>tmo-header</title>
    <desc>Created with Sketch.</desc>
    <g id="tmo-header" stroke="none" stroke-width="1" fill="none" fill-rule="evenodd">
        <rect id="Rectangle" fill="#DE1675" x="0" y="0" width="1920" height="1080"></rect>
        <g id="t-mobile-seeklogo.com" transform="translate(643.000000, 91.000000)" fill="#FFFFFF">
            <path d="M0,26.809825 L4.07782568,27.5469473 C4.64858375,20.8958622 6.44681548,14.9207557 9.7338318,10.7086282 C10.1945642,10.1175717 10.5074497,9.76769333 11.0782077,9.24797115 C11.6799105,8.69767709 11.628336,8.63313643 12.5463625,7.91299851 C15.8024341,5.35854705 21.1042951,3.48347098 25.3402827,3.71445861 C25.4743765,4.84561863 25.3677891,42.8940373 25.3677891,43.9674504 C25.3677891,48.2101497 25.5465808,60.5340193 25.1546144,63.8969274 C24.7729629,67.1715168 23.9959068,69.2775805 21.5719042,70.4698843 C18.9209736,71.7708882 15.7818043,71.6452038 12.5876221,71.719935 L12.5394859,75.9932062 L50.4880205,76 L50.4880205,71.7233319 C47.1631829,71.58406 44.3334607,71.8286351 41.5312449,70.50725 C39.0694209,69.3421212 38.2854882,67.2666294 37.8832069,64.0022306 C37.4774873,60.6902756 37.656279,48.2644997 37.656279,44.0693567 C37.656279,30.6245178 37.6115811,17.1694882 37.656279,3.72464924 C40.5375757,3.51404287 44.7116739,4.7029498 46.9431316,5.72880664 C49.6628281,6.97885735 51.8358347,8.85393343 53.3005512,10.7188189 C56.5669377,14.88339 58.416744,20.957006 58.953119,27.5333597 L63,26.8539844 L62.2676418,0.106975295 C61.4665175,-0.0934404451 33.2036784,0.0492283865 31.5739235,0.0492283865 C30.8553185,0.0492283865 1.53348251,-0.0594716757 0.770179556,0.0967846638 L0,26.809825" id="Fill-1"></path>
            <polyline id="Fill-2" points="0 49.9834327 14.9933716 50 15 35.0033135 0.00994255413 35 0 49.9834327"></polyline>
            <polyline id="Fill-3" points="47 50 61.9966865 49.9966873 62 35.023189 47.0165673 35 47 50"></polyline>
            <polyline id="Fill-4" points="93 49.9635681 107.996686 50 108 35 93.0066284 35.006624 93 49.9635681"></polyline>
            <polyline id="Fill-5" points="139 50 153.996687 49.9966873 154 35.0364399 139.019881 35 139 50"></polyline>
        </g>
    </g>
</svg>