<?xml version="1.0" encoding="UTF-8"?>
<svg width="1440px" height="450px" viewBox="0 0 1440 450" version="1.1" xmlns="http://www.w3.org/2000/svg" xmlns:xlink="http://www.w3.org/1999/xlink">
    <!-- Generator: Sketch 54.1 (76490) - https://sketchapp.com -->
    <title>Apple TV Copy 3</title>
    <desc>Created with Sketch.</desc>
    <g id="Apple-TV-Copy-3" stroke="none" stroke-width="1" fill="none" fill-rule="evenodd">
        <rect id="Rectangle" fill="#323A44" x="0" y="0" width="1920" height="1080"></rect>
        <path d="M796.647083,106.665823 L719.615,63 L643,107.334177 L643.256667,154.18264 L679.350417,174.392405 L679.350417,215.766727 L720.417083,239 L797,194.665823 L796.647083,106.665823 Z M720.290161,217 L698.463591,204.67278 L698.463591,185.242278 L720.193441,197.505792 L760.880489,174.093629 L760.654808,127.555985 L719.774319,104.494208 L679.119511,127.938224 L679.119511,152.497104 L662,142.94112 L662,118.382239 L719.709839,85 L777.742079,117.745174 L778,183.745174 L720.290161,217 Z M699,139.281984 L720.483871,127 L742,139.154047 L742,163.718016 L720.483871,176 L699,163.845953 L699,139.281984 Z" id="Shape" fill="#FF6D22" fill-rule="nonzero"></path>
    </g>
</svg>